<?xml version="1.0" encoding="UTF-8" standalone="no"?>
<!DOCTYPE svg PUBLIC "-//W3C//DTD SVG 1.1//EN" "http://www.w3.org/Graphics/SVG/1.1/DTD/svg11.dtd">
<!-- Generated by graphviz version 2.44.1 (20201121.0304)
 -->
<!-- Pages: 1 -->
<svg xmlns="http://www.w3.org/2000/svg" xmlns:xlink="http://www.w3.org/1999/xlink" width="862pt" height="499pt" viewBox="0.00 0.00 862.00 499.00"><script>
(function() {
  var enablePanZoom = false;
  var enablePanZoomControls = false;
  var panZoomScriptUrl = "https://graphviz.corp.google.com/svg-pan-zoom.js";

  var isEmbedded = true;
  try {
    // This condition is true when the SVG is being displayed in a
    // top-level browser window. If the parent location's href is
    // different, or we can't access it (due to security constraints
    // on accessing javascript properties on a different domain),
    // then the document is embedded.
    if (window.location.href == window.parent.location.href) {
      isEmbedded = false;
    }
  } catch (e) {}

  if (!isEmbedded) enablePanZoom = true;

  if (enablePanZoom &amp;&amp; typeof svgPanZoom === 'undefined') {
    var panZoomScript =
      document.createElementNS('http://www.w3.org/2000/svg', 'script');
    panZoomScript.setAttributeNS(
      'http://www.w3.org/1999/xlink', 'xlink:href', panZoomScriptUrl);
    document.currentScript.parentElement.appendChild(panZoomScript);
  }

  window.onload = function() {
    var svg = document.getElementsByTagName("svg")[0];

    if (!isEmbedded) {
      svg.removeAttribute("width");
      svg.removeAttribute("height");
    }

    if (enablePanZoom) {
      var altPressed = false;
      svgPanZoom(svg, {
        minZoom: 0.2,
        maxZoom: 100,
        controlIconsEnabled: enablePanZoomControls,
        preventMouseEventsDefault: isEmbedded,
        beforeZoom: function(oldZoom, newZoom) { return !altPressed; },
        beforePan: function(oldPan, newPan) { return !altPressed; },
      });
      document.onkeydown = function(e) {
        altPressed = e.altKey;
      };
      document.onkeyup = function(e) {
        altPressed = e.altKey;
      };
    }

    var links = document.getElementsByTagName("a");
    for (var i = 0; i &lt; links.length; i++) {
      if (!links[i].getAttribute("target")) {
        links[i].setAttribute("target", "_top");
      }
    }
  };
})();
</script>
<g id="graph0" class="graph" transform="scale(1 1) rotate(0) translate(4 495)">
<polygon fill="white" stroke="none" points="-4,4 -4,-495 857.5,-495 857.5,4 -4,4"/>
<g id="clust1" class="cluster">
<title>cluster_claims</title>
<polygon fill="#f5f5f5" stroke="black" points="388,-406.5 388,-483 816,-483 816,-406.5 388,-406.5"/>
<text xml:space="preserve" text-anchor="middle" x="602" y="-465.7" font-family="Times,serif" font-size="14.00">User Requests</text>
</g>
<g id="clust2" class="cluster">
<title>cluster_sandboxes</title>
<polygon fill="#f5f5f5" stroke="black" points="371,-124 371,-200.5 697,-200.5 697,-124 371,-124"/>
<text xml:space="preserve" text-anchor="middle" x="534" y="-183.2" font-family="Times,serif" font-size="14.00">Sandbox CR Instances</text>
</g>
<g id="clust3" class="cluster">
<title>cluster_pods</title>
<polygon fill="#f5f5f5" stroke="black" points="8,-8 8,-89.5 524,-89.5 524,-8 8,-8"/>
<text xml:space="preserve" text-anchor="middle" x="266" y="-72.2" font-family="Times,serif" font-size="14.00">Resulting Sandbox Pods</text>
</g>
<!-- SandboxTemplate -->
<g id="node1" class="node">
<title>SandboxTemplate</title>
<path fill="#e8f5e9" stroke="black" d="M628.88,-362C628.88,-362 489.12,-362 489.12,-362 483.12,-362 477.12,-356 477.12,-350 477.12,-350 477.12,-333 477.12,-333 477.12,-327 483.12,-321 489.12,-321 489.12,-321 628.88,-321 628.88,-321 634.88,-321 640.88,-327 640.88,-333 640.88,-333 640.88,-350 640.88,-350 640.88,-356 634.88,-362 628.88,-362"/>
<text xml:space="preserve" text-anchor="middle" x="559" y="-344.7" font-family="Times,serif" font-size="14.00">SandboxTemplate</text>
<text xml:space="preserve" text-anchor="middle" x="559" y="-328.2" font-family="Times,serif" font-size="14.00">(Blueprint + NetPol Rules)</text>
</g>
<!-- SharedNetPol -->
<g id="node2" class="node">
<title>SharedNetPol</title>
<path fill="#e0f7fa" stroke="black" d="M334.5,-268.5C334.5,-268.5 219.5,-268.5 219.5,-268.5 213.5,-268.5 207.5,-262.5 207.5,-256.5 207.5,-256.5 207.5,-239.5 207.5,-239.5 207.5,-233.5 213.5,-227.5 219.5,-227.5 219.5,-227.5 334.5,-227.5 334.5,-227.5 340.5,-227.5 346.5,-233.5 346.5,-239.5 346.5,-239.5 346.5,-256.5 346.5,-256.5 346.5,-262.5 340.5,-268.5 334.5,-268.5"/>
<text xml:space="preserve" text-anchor="middle" x="277" y="-251.2" font-family="Times,serif" font-size="14.00">Shared NetworkPolicy</text>
<text xml:space="preserve" text-anchor="middle" x="277" y="-234.7" font-family="Times,serif" font-size="14.00">(1 per Template)</text>
</g>
<!-- SandboxTemplate&#45;&gt;SharedNetPol -->
<g id="edge1" class="edge">
<title>SandboxTemplate-&gt;SharedNetPol</title>
<path fill="none" stroke="black" d="M486.38,-320.56C486.38,-294.96 486.38,-255 486.38,-255 486.38,-255 358.23,-255 358.23,-255"/>
<polygon fill="black" stroke="black" points="358.23,-251.5 348.23,-255 358.23,-258.5 358.23,-251.5"/>
<text xml:space="preserve" text-anchor="middle" x="584.62" y="-289.7" font-family="Times,serif" font-size="14.00"> Generates / Updates</text>
</g>
<!-- Sandbox1 -->
<g id="node6" class="node">
<title>Sandbox1</title>
<path fill="#fffde7" stroke="black" d="M440.88,-168C440.88,-168 391.12,-168 391.12,-168 385.12,-168 379.12,-162 379.12,-156 379.12,-156 379.12,-144 379.12,-144 379.12,-138 385.12,-132 391.12,-132 391.12,-132 440.88,-132 440.88,-132 446.88,-132 452.88,-138 452.88,-144 452.88,-144 452.88,-156 452.88,-156 452.88,-162 446.88,-168 440.88,-168"/>
<text xml:space="preserve" text-anchor="middle" x="416" y="-144.95" font-family="Times,serif" font-size="14.00">Sandbox 1</text>
</g>
<!-- SharedNetPol&#45;&gt;Sandbox1 -->
<!-- Pod1 -->
<g id="node9" class="node">
<title>Pod1</title>
<path fill="#ffecec" stroke="black" d="M141.75,-57C141.75,-57 28.25,-57 28.25,-57 22.25,-57 16.25,-51 16.25,-45 16.25,-45 16.25,-28 16.25,-28 16.25,-22 22.25,-16 28.25,-16 28.25,-16 141.75,-16 141.75,-16 147.75,-16 153.75,-22 153.75,-28 153.75,-28 153.75,-45 153.75,-45 153.75,-51 147.75,-57 141.75,-57"/>
<text xml:space="preserve" text-anchor="middle" x="85" y="-39.7" font-family="Times,serif" font-size="14.00">Pod 1</text>
<text xml:space="preserve" text-anchor="middle" x="85" y="-23.2" font-family="Times,serif" font-size="14.00">(Label: template=abc)</text>
</g>
<!-- SharedNetPol&#45;&gt;Pod1 -->
<g id="edge11" class="edge">
<title>SharedNetPol-&gt;Pod1</title>
<path fill="none" stroke="black" d="M207.22,-248C144.47,-248 62.08,-248 62.08,-248 62.08,-248 62.08,-68.68 62.08,-68.68"/>
<polygon fill="black" stroke="black" points="65.58,-68.68 62.08,-58.68 58.58,-68.68 65.58,-68.68"/>
<text xml:space="preserve" text-anchor="middle" x="107.38" y="-144.95" font-family="Times,serif" font-size="14.00"> Selects &amp; Enforces</text>
</g>
<!-- Pod2 -->
<g id="node10" class="node">
<title>Pod2</title>
<path fill="#ffecec" stroke="black" d="M503.75,-57C503.75,-57 390.25,-57 390.25,-57 384.25,-57 378.25,-51 378.25,-45 378.25,-45 378.25,-28 378.25,-28 378.25,-22 384.25,-16 390.25,-16 390.25,-16 503.75,-16 503.75,-16 509.75,-16 515.75,-22 515.75,-28 515.75,-28 515.75,-45 515.75,-45 515.75,-51 509.75,-57 503.75,-57"/>
<text xml:space="preserve" text-anchor="middle" x="447" y="-39.7" font-family="Times,serif" font-size="14.00">Pod 2</text>
<text xml:space="preserve" text-anchor="middle" x="447" y="-23.2" font-family="Times,serif" font-size="14.00">(Label: template=abc)</text>
</g>
<!-- SharedNetPol&#45;&gt;Pod2 -->
<g id="edge12" class="edge">
<title>SharedNetPol-&gt;Pod2</title>
<path fill="none" stroke="black" d="M338.67,-227.38C338.67,-174.29 338.67,-37 338.67,-37 338.67,-37 366.26,-37 366.26,-37"/>
<polygon fill="black" stroke="black" points="366.26,-40.5 376.26,-37 366.26,-33.5 366.26,-40.5"/>
</g>
<!-- PodN -->
<g id="node11" class="node">
<title>PodN</title>
<path fill="#ffecec" stroke="black" d="M322.75,-57C322.75,-57 209.25,-57 209.25,-57 203.25,-57 197.25,-51 197.25,-45 197.25,-45 197.25,-28 197.25,-28 197.25,-22 203.25,-16 209.25,-16 209.25,-16 322.75,-16 322.75,-16 328.75,-16 334.75,-22 334.75,-28 334.75,-28 334.75,-45 334.75,-45 334.75,-51 328.75,-57 322.75,-57"/>
<text xml:space="preserve" text-anchor="middle" x="266" y="-39.7" font-family="Times,serif" font-size="14.00">Pod N</text>
<text xml:space="preserve" text-anchor="middle" x="266" y="-23.2" font-family="Times,serif" font-size="14.00">(Label: template=abc)</text>
</g>
<!-- SharedNetPol&#45;&gt;PodN -->
<g id="edge13" class="edge">
<title>SharedNetPol-&gt;PodN</title>
<path fill="none" stroke="black" d="M249.92,-227.34C249.92,-227.34 249.92,-68.76 249.92,-68.76"/>
<polygon fill="black" stroke="black" points="253.42,-68.76 249.92,-58.76 246.42,-68.76 253.42,-68.76"/>
</g>
<!-- SandboxClaim1 -->
<g id="node3" class="node">
<title>SandboxClaim1</title>
<polygon fill="#e3f2fd" stroke="black" points="497.75,-450.5 396.25,-450.5 396.25,-414.5 503.75,-414.5 503.75,-444.5 497.75,-450.5"/>
<polyline fill="none" stroke="black" points="497.75,-450.5 497.75,-444.5"/>
<polyline fill="none" stroke="black" points="503.75,-444.5 497.75,-444.5"/>
<text xml:space="preserve" text-anchor="middle" x="450" y="-427.45" font-family="Times,serif" font-size="14.00">SandboxClaim 1</text>
</g>
<!-- SandboxClaim1&#45;&gt;SandboxTemplate -->
<g id="edge2" class="edge">
<title>SandboxClaim1-&gt;SandboxTemplate</title>
<path fill="none" stroke="black" d="M490.44,-414.08C490.44,-414.08 490.44,-373.95 490.44,-373.95"/>
<polygon fill="black" stroke="black" points="493.94,-373.95 490.44,-363.95 486.94,-373.95 493.94,-373.95"/>
<text xml:space="preserve" text-anchor="middle" x="498.25" y="-383.2" font-family="Times,serif" font-size="14.00"> Refs</text>
</g>
<!-- SandboxClaim1&#45;&gt;Sandbox1 -->
<g id="edge5" class="edge">
<title>SandboxClaim1-&gt;Sandbox1</title>
<path fill="none" stroke="black" d="M424.56,-414.4C424.56,-414.4 424.56,-179.83 424.56,-179.83"/>
<polygon fill="black" stroke="black" points="428.06,-179.83 424.56,-169.83 421.06,-179.83 428.06,-179.83"/>
<text xml:space="preserve" text-anchor="middle" x="436.75" y="-289.7" font-family="Times,serif" font-size="14.00"> Binds to</text>
</g>
<!-- SandboxClaim2 -->
<g id="node4" class="node">
<title>SandboxClaim2</title>
<polygon fill="#e3f2fd" stroke="black" points="801.75,-450.5 700.25,-450.5 700.25,-414.5 807.75,-414.5 807.75,-444.5 801.75,-450.5"/>
<polyline fill="none" stroke="black" points="801.75,-450.5 801.75,-444.5"/>
<polyline fill="none" stroke="black" points="807.75,-444.5 801.75,-444.5"/>
<text xml:space="preserve" text-anchor="middle" x="754" y="-427.45" font-family="Times,serif" font-size="14.00">SandboxClaim 2</text>
</g>
<!-- SandboxClaim2&#45;&gt;SandboxTemplate -->
<g id="edge3" class="edge">
<title>SandboxClaim2-&gt;SandboxTemplate</title>
<path fill="none" stroke="black" d="M754,-414.19C754,-387.74 754,-342 754,-342 754,-342 652.65,-342 652.65,-342"/>
<polygon fill="black" stroke="black" points="652.65,-338.5 642.65,-342 652.65,-345.5 652.65,-338.5"/>
<text xml:space="preserve" text-anchor="middle" x="661.25" y="-383.2" font-family="Times,serif" font-size="14.00"> Refs</text>
</g>
<!-- Sandbox2 -->
<g id="node7" class="node">
<title>Sandbox2</title>
<path fill="#fffde7" stroke="black" d="M676.88,-168C676.88,-168 627.12,-168 627.12,-168 621.12,-168 615.12,-162 615.12,-156 615.12,-156 615.12,-144 615.12,-144 615.12,-138 621.12,-132 627.12,-132 627.12,-132 676.88,-132 676.88,-132 682.88,-132 688.88,-138 688.88,-144 688.88,-144 688.88,-156 688.88,-156 688.88,-162 682.88,-168 676.88,-168"/>
<text xml:space="preserve" text-anchor="middle" x="652" y="-144.95" font-family="Times,serif" font-size="14.00">Sandbox 2</text>
</g>
<!-- SandboxClaim2&#45;&gt;Sandbox2 -->
<g id="edge6" class="edge">
<title>SandboxClaim2-&gt;Sandbox2</title>
<path fill="none" stroke="black" d="M700.01,-433C685.17,-433 673.06,-433 673.06,-433 673.06,-433 673.06,-179.65 673.06,-179.65"/>
<polygon fill="black" stroke="black" points="676.56,-179.65 673.06,-169.65 669.56,-179.65 676.56,-179.65"/>
<text xml:space="preserve" text-anchor="middle" x="828.75" y="-289.7" font-family="Times,serif" font-size="14.00"> Binds to</text>
</g>
<!-- SandboxClaimN -->
<g id="node5" class="node">
<title>SandboxClaimN</title>
<polygon fill="#e3f2fd" stroke="black" points="651.25,-450.5 546.75,-450.5 546.75,-414.5 657.25,-414.5 657.25,-444.5 651.25,-450.5"/>
<polyline fill="none" stroke="black" points="651.25,-450.5 651.25,-444.5"/>
<polyline fill="none" stroke="black" points="657.25,-444.5 651.25,-444.5"/>
<text xml:space="preserve" text-anchor="middle" x="602" y="-427.45" font-family="Times,serif" font-size="14.00">SandboxClaim N</text>
</g>
<!-- SandboxClaimN&#45;&gt;SandboxTemplate -->
<g id="edge4" class="edge">
<title>SandboxClaimN-&gt;SandboxTemplate</title>
<path fill="none" stroke="black" d="M593.81,-414.08C593.81,-414.08 593.81,-373.95 593.81,-373.95"/>
<polygon fill="black" stroke="black" points="597.31,-373.95 593.81,-363.95 590.31,-373.95 597.31,-373.95"/>
<text xml:space="preserve" text-anchor="middle" x="582.25" y="-383.2" font-family="Times,serif" font-size="14.00"> Refs</text>
</g>
<!-- SandboxN -->
<g id="node8" class="node">
<title>SandboxN</title>
<path fill="#fffde7" stroke="black" d="M560.38,-168C560.38,-168 507.62,-168 507.62,-168 501.62,-168 495.62,-162 495.62,-156 495.62,-156 495.62,-144 495.62,-144 495.62,-138 501.62,-132 507.62,-132 507.62,-132 560.38,-132 560.38,-132 566.38,-132 572.38,-138 572.38,-144 572.38,-144 572.38,-156 572.38,-156 572.38,-162 566.38,-168 560.38,-168"/>
<text xml:space="preserve" text-anchor="middle" x="534" y="-144.95" font-family="Times,serif" font-size="14.00">Sandbox N</text>
</g>
<!-- SandboxClaimN&#45;&gt;SandboxN -->
<g id="edge7" class="edge">
<title>SandboxClaimN-&gt;SandboxN</title>
<path fill="none" stroke="black" d="M649.06,-414.14C649.06,-366.21 649.06,-241 649.06,-241 649.06,-241 534,-241 534,-241 534,-241 534,-179.93 534,-179.93"/>
<polygon fill="black" stroke="black" points="537.5,-179.93 534,-169.93 530.5,-179.93 537.5,-179.93"/>
<text xml:space="preserve" text-anchor="middle" x="730.75" y="-289.7" font-family="Times,serif" font-size="14.00"> Binds to</text>
</g>
<!-- Sandbox1&#45;&gt;Pod1 -->
<g id="edge8" class="edge">
<title>Sandbox1-&gt;Pod1</title>
<path fill="none" stroke="black" d="M378.84,-144C296.9,-144 107.92,-144 107.92,-144 107.92,-144 107.92,-69 107.92,-69"/>
<polygon fill="black" stroke="black" points="111.42,-69 107.92,-59 104.42,-69 111.42,-69"/>
<text xml:space="preserve" text-anchor="middle" x="161.62" y="-100.7" font-family="Times,serif" font-size="14.00"> Manages</text>
</g>
<!-- Sandbox2&#45;&gt;Pod2 -->
<g id="edge9" class="edge">
<title>Sandbox2-&gt;Pod2</title>
<path fill="none" stroke="black" d="M652,-131.59C652,-99.57 652,-37 652,-37 652,-37 527.63,-37 527.63,-37"/>
<polygon fill="black" stroke="black" points="527.63,-33.5 517.63,-37 527.63,-40.5 527.63,-33.5"/>
<text xml:space="preserve" text-anchor="middle" x="560.62" y="-100.7" font-family="Times,serif" font-size="14.00"> Manages</text>
</g>
<!-- SandboxN&#45;&gt;PodN -->
<g id="edge10" class="edge">
<title>SandboxN-&gt;PodN</title>
<path fill="none" stroke="black" d="M505.69,-131.69C505.69,-115.69 505.69,-95 505.69,-95 505.69,-95 292.33,-95 292.33,-95 292.33,-95 292.33,-68.8 292.33,-68.8"/>
<polygon fill="black" stroke="black" points="295.83,-68.8 292.33,-58.8 288.83,-68.8 295.83,-68.8"/>
<text xml:space="preserve" text-anchor="middle" x="323.62" y="-100.7" font-family="Times,serif" font-size="14.00"> Manages</text>
</g>
</g>
</svg>
